<svg width="448" height="352" viewBox="0 0 448 352" fill="none" xmlns="http://www.w3.org/2000/svg">
<path d="M318.54 68.68L291.92 26.62C286.31 20.08 278.62 16 270 16H178C169.38 16 161.69 20.08 156.08 26.62L129.46 68.68C123.85 75.23 116.62 80 108 80H48C39.5131 80 31.3737 83.3714 25.3726 89.3726C19.3714 95.3738 16 103.513 16 112V304C16 312.487 19.3714 320.626 25.3726 326.627C31.3737 332.629 39.5131 336 48 336H400C408.487 336 416.626 332.629 422.627 326.627C428.629 320.626 432 312.487 432 304V112C432 103.513 428.629 95.3738 422.627 89.3726C416.626 83.3714 408.487 80 400 80H341C332.35 80 324.15 75.23 318.54 68.68Z" stroke="white" stroke-width="32" stroke-linecap="round" stroke-linejoin="round"/>
<path d="M224 272C268.183 272 304 236.183 304 192C304 147.817 268.183 112 224 112C179.817 112 144 147.817 144 192C144 236.183 179.817 272 224 272Z" stroke="white" stroke-width="32" stroke-miterlimit="10"/>
<path d="M92 78V56H68V78" stroke="white" stroke-width="32" stroke-linecap="round" stroke-linejoin="round"/>
</svg>
